# xmcd
#
# Track frame offsets:
#	150
#	16077
#	33430
#	51523
#	68256
#	83284
#	101406
#	117886
#	132792
#	148454
#	164992
#
# Disc length: 2403 seconds
#
# Revision: 1
# Processed by: cddbd v1.5.2PL0 Copyright (c) Steve Scherf et al.
# Submitted via: EZCDAudioConverter 2.1.7.1
#
DISCID=8e09610b
DTITLE=Charles Plogman - Näillä kaduilla
DYEAR=1900
DGENRE=country
TTITLE0=Kuin muukalainen
TTITLE1=Näillä kaduilla
TTITLE2=Viimeinen yö
TTITLE3=Taas sanaton
TTITLE4=Paljain jaloin
TTITLE5=Kaikki puoliksi
TTITLE6=On niin hiljaista
TTITLE7=Pisaroita
TTITLE8=Tahdon sinun tietävän
TTITLE9=Yöhön liukuen
TTITLE10=Tule takaisin
EXTD=
EXTT0=
EXTT1=
EXTT2=
EXTT3=
EXTT4=
EXTT5=
EXTT6=
EXTT7=
EXTT8=
EXTT9=
EXTT10=
PLAYORDER=
